<?xml version="1.0" encoding="UTF-8" standalone="no"?>
<svg width="300px" height="239px" viewBox="0 0 300 239" version="1.1" xmlns="http://www.w3.org/2000/svg" xmlns:xlink="http://www.w3.org/1999/xlink">
    <!-- Generator: Sketch 39.1 (31720) - http://www.bohemiancoding.com/sketch -->
    <title>logo</title>
    <desc>Created with Sketch.</desc>
    <defs></defs>
    <g id="Page-1" stroke="none" stroke-width="1" fill="none" fill-rule="evenodd">
        <g id="logo" transform="translate(1.000000, 1.000000)">
            <g id="Group">
                <polygon id="Shape" stroke="#000000" stroke-width="2" fill="#F7DF1E" points="0 0 237 0 237 237 0 237"></polygon>
                <path d="M159.204,185.157 C163.978,192.952 170.189,198.681 181.174,198.681 C190.401,198.681 196.296,194.071 196.296,187.697 C196.296,180.061 190.24,177.357 180.082,172.913 L174.515,170.523 C158.445,163.678 147.768,155.101 147.768,136.968 C147.768,120.265 160.494,107.55 180.383,107.55 C194.543,107.55 204.723,112.477 212.059,125.38 L194.715,136.516 C190.897,129.669 186.778,126.972 180.382,126.972 C173.859,126.972 169.725,131.11 169.725,136.516 C169.725,143.196 173.863,145.902 183.418,150.04 L188.985,152.425 C207.907,160.539 218.591,168.812 218.591,187.411 C218.591,207.463 202.841,218.447 181.687,218.447 C161.003,218.447 147.64,208.591 141.102,195.673 L159.202,185.158 L159.204,185.157 Z M239.544,185.157 C244.317,192.952 250.528,198.681 261.512,198.681 C270.74,198.681 276.635,194.071 276.635,187.697 C276.635,180.061 270.579,177.357 260.421,172.913 L254.855,170.523 C238.785,163.678 228.108,155.101 228.108,136.968 C228.108,120.265 240.834,107.55 260.723,107.55 C274.883,107.55 285.063,112.477 292.399,125.38 L275.056,136.516 C271.238,129.669 267.119,126.972 260.723,126.972 C254.2,126.972 250.066,131.11 250.066,136.516 C250.066,143.196 254.204,145.902 263.759,150.04 L269.327,152.425 C288.249,160.539 298.933,168.812 298.933,187.411 C298.933,207.463 283.183,218.447 262.029,218.447 C241.346,218.447 227.983,208.591 221.445,195.673 L239.545,185.158 L239.544,185.157 Z M80.531,187.087 C84.031,193.294 87.213,198.542 94.865,198.542 C102.182,198.542 106.798,195.679 106.798,184.548 L106.798,108.82 L129.068,108.82 L129.068,184.85 C129.068,207.91 115.548,218.405 95.813,218.405 C77.983,218.405 67.655,209.177 62.403,198.062 L80.533,187.087 L80.531,187.087 Z" id="Shape" fill="#000000"></path>
            </g>
        </g>
    </g>
</svg>